<svg width="118" height="21" viewBox="0 0 118 21" fill="none" xmlns="http://www.w3.org/2000/svg">
<path d="M19.8292 6.80501H25.5869L29.5205 20.976H26.1143L22.7366 11.776H22.6795L19.3018 20.976H15.8956L19.8292 6.80501Z" fill="white"/>
<path d="M4.36587 20.976H0V1.24672H4.36587V8.78937H10.9147V1.24672H15.2805V20.976H10.9147V12.8412H4.36587V20.976Z" fill="white"/>
<path d="M40.4145 16.3009V20.3527C39.9598 20.5605 39.2867 20.7163 38.3953 20.8202C37.504 20.9241 36.558 20.976 35.5575 20.976C34.1204 20.976 32.9198 20.7475 31.9557 20.2904C31.0097 19.8332 30.3003 19.0436 29.8273 17.9216C29.3725 16.7995 29.1361 15.2411 29.1179 13.2464C29.1179 11.1893 29.3634 9.58934 29.8546 8.44652C30.364 7.30369 31.1007 6.50372 32.0648 6.04659C33.029 5.58946 34.1841 5.36089 35.5302 5.36089C36.3306 5.36089 37.1765 5.42323 38.0679 5.5479C38.9593 5.67257 39.6869 5.8388 40.2508 6.04659L40.2781 10.2231L40.1963 10.2854C39.6505 10.1608 39.0684 10.0673 38.4499 10.0049C37.8314 9.94258 37.222 9.91142 36.6217 9.91142C35.4029 9.91142 34.557 10.1712 34.084 10.6906C33.6111 11.2101 33.3746 12.0828 33.3746 13.3087C33.3746 14.2438 33.4746 14.9399 33.6747 15.397C33.8748 15.8541 34.2114 16.1554 34.6843 16.3009C35.1573 16.4463 35.8031 16.519 36.6217 16.519C37.2584 16.519 37.8678 16.4879 38.4499 16.4255C39.032 16.3632 39.6505 16.2905 40.3054 16.2073L40.4145 16.3009Z" fill="white"/>
<path d="M46.4108 20.976H42.0449V0H46.4108V12.2178H46.4654L49.9035 5.79724H54.7059V5.92191L50.6675 13.0905V13.2152L55.3608 20.976H50.3401L46.4926 13.9633L46.4108 13.9321V20.976Z" fill="white"/>
<path d="M60.2481 20.976H55.8822V5.79724H59.4295L59.7842 8.91404H59.8661C60.0298 7.75043 60.4209 6.91929 61.0394 6.4206C61.6579 5.90113 62.5766 5.6414 63.7954 5.6414C64.2865 5.6414 64.7322 5.67257 65.1324 5.73491C65.5326 5.77646 65.8692 5.81802 66.142 5.85958V10.7218L66.0875 10.7841C65.7964 10.701 65.4599 10.6283 65.0779 10.5659C64.714 10.5036 64.2956 10.4724 63.8227 10.4724C63.1496 10.4724 62.5402 10.5971 61.9945 10.8465C61.4669 11.0958 61.0485 11.5841 60.7393 12.3114C60.4482 13.0178 60.3027 14.0775 60.3027 15.4905L60.2481 20.976Z" fill="white"/>
<path d="M72.5826 20.9798H68.2167V0.00373227H75.9115C77.6397 0.00373227 78.3715 0.668046 78.4856 0.720596C78.5996 0.773146 80.2683 1.9777 80.7231 3.05819C81.1778 4.13868 81.4052 5.60358 81.4052 7.45288C81.4052 9.19828 81.1778 11.8891 80.7231 12.9904C80.2683 14.0709 79.9209 14.8501 78.884 15.3695C77.8472 15.889 77.6397 16.1487 75.9115 16.1487H72.5826V20.9798ZM74.8036 4.08674H72.5826V12.0657H74.8036C76.0951 12.0657 76.9592 11.8164 77.3958 11.3177C77.8324 10.819 77.8856 8.69959 77.8856 7.45288C77.8856 6.26849 77.7488 5.71786 77.3122 5.19839C76.8756 4.65815 76.0951 4.08674 74.8036 4.08674Z" fill="white"/>
<path d="M96.8528 16.3981C98.2717 16.8552 99.8453 17.0838 101.573 17.0838C102.41 17.0838 103.038 17.0526 103.456 16.9903C103.875 16.9279 104.157 16.824 104.302 16.6786C104.448 16.5331 104.52 16.3357 104.52 16.0864C104.52 15.7332 104.402 15.515 104.166 15.4319C103.947 15.3488 103.502 15.2345 102.829 15.089L100.673 14.6215C99.2905 14.3098 98.2899 13.8215 97.6714 13.1566C97.0711 12.4709 96.771 11.4528 96.771 10.1022C96.771 8.27363 97.2439 7.02691 98.1899 6.36199C99.154 5.69708 100.682 5.36462 102.774 5.36462C104.029 5.36462 105.13 5.44773 106.076 5.61396C107.04 5.75941 107.84 5.94642 108.477 6.17499L108.422 9.94631L108.341 10.0398C106.867 9.49957 105.257 9.22945 103.511 9.22945C102.656 9.22945 102.055 9.30217 101.71 9.44762C101.382 9.5723 101.219 9.83203 101.219 10.2268C101.219 10.4346 101.264 10.6008 101.355 10.7255C101.464 10.8502 101.701 10.9749 102.065 11.0995C102.428 11.2034 103.001 11.3385 103.784 11.5047L105.776 11.9411C106.885 12.2112 107.704 12.6579 108.231 13.2813C108.759 13.9046 109.023 14.8916 109.023 16.2422C109.023 17.4266 108.832 18.3721 108.45 19.0785C108.068 19.7642 107.422 20.2525 106.512 20.5434C105.621 20.8343 104.384 20.9798 102.801 20.9798C101.601 20.9798 100.491 20.9174 99.4724 20.7928C98.4718 20.6473 97.5714 20.4811 96.771 20.2941V16.4604L96.8528 16.3981Z" fill="white"/>
<path d="M110.578 16.1487V9.60346H108.941V5.55163H110.987L111.806 1.84264H114.944V5.55163H117.918V9.60346H114.944V15.0579C114.944 15.6397 115.008 16.0448 115.135 16.2734C115.262 16.4812 115.553 16.5851 116.008 16.5851C116.299 16.5851 116.608 16.5747 116.936 16.5539C117.263 16.5124 117.591 16.4708 117.918 16.4292L118 16.4916V20.5434C117.127 20.8343 115.972 20.9798 114.535 20.9798C113.097 20.9798 112.079 20.6058 111.478 19.8577C110.878 19.1097 110.578 17.8734 110.578 16.1487Z" fill="white"/>
<path d="M95.8429 11.0995L95.8488 16.9729L81.9608 21L81.9574 17.5254L90.9728 14.0704L90.9727 14.0123L81.9504 10.5761L81.9469 7.1015L95.8429 11.0995Z" fill="white"/>
</svg>
